<svg id="Capa_1" data-name="Capa 1" xmlns="http://www.w3.org/2000/svg" viewBox="0 0 544.86 95.17"><defs><style>.cls-1{fill:#213a8f;fill-rule:evenodd;}</style></defs><path class="cls-1" d="M68.18,417.78c11.12,2.35,20,6.64,29.17,12.75a152,152,0,0,1-11-42.1c-4.46,10.42-9.86,20.15-18.16,29.35ZM66.69,420c-7.77,9.81-16.76,20.34-27.58,27.29-4.74,3-10.73-3.06-3.5-6.83A105.06,105.06,0,0,0,63.91,419c-9.87-1-15.48-.18-24.38,3.25,4.5-3.63,13.51-6.34,25.69-4.84,16.66-18.86,23.16-40.05,26.18-50.8,10.13,48.7,22.44,89.67,45.21,93.36-6.85,2.41-15.41,3.57-21.57-4.14-14.32-17.89-26.77-33-48.35-35.85Zm61.06-23.86v34.3c0,3.66,4.09,3.27,7.65.56-.28,6.86-15.34,8.57-15.34,2.17V400c0-3.92-5.62-2-8.56.35,0-5.37,16.45-14.59,16.25-4.19Zm25.59.19v12c7.14-12.25,19.45-19.79,23.87-14.91,3.7,4.1.89,14.28-9,18.4,4-6.43,1.11-9.17-1.13-10.22s-6.88-.53-13.72,11.09v24.46H145.6v-37c0-3.93-5.85-2-8.79.35,0-5.38,16.53-14.59,16.53-4.19Zm-28.75-27.39c3,.8,4.59,4.6,3.55,8.45s-4.3,6.34-7.29,5.54-4.58-4.6-3.55-8.45,4.31-6.34,7.29-5.54Zm148.52,21.91c-1.41-7.58-10.59-17.52-10.35-22.74a123.49,123.49,0,0,1-24.52.29c-22.64-2-32.26,5.09-32.5,20.39-.16,10.49,6.41,19.39,35.17,25.31,16.58,3.41,31.15,3.58,31.6,23.09.19,8.08-2,18.54-29.54,19-28.05.42-48-19-39.89-40.48-5,6.9-5.57,13.18-5.53,18.62.16,20.61,24.48,27.86,46,27.47,20.22-.36,34.14-9.93,34.17-24.57,0-18.43-6.82-28.39-26.19-31.75-18.49-3.22-40.82-6.8-40.68-19.32.1-9,3.33-16.08,27.77-15.26,16.46.55,27.59,10.91,34.48,20ZM316,409.15a14.9,14.9,0,0,1,7.09-8.56c-3.55-5-8.31-9.27-17.43-8.94-6.2.22-21,7.1-21,28.47,0,8.84,4.41,17.1,18.07,17.05,6.51,0,11.8-3.45,16.25-9.11-17.55,10.76-26.06,2.25-27.18-14.18-.5-7.29.7-15.29,13.29-15.07,7.35.13,9.8,4,10.94,10.34Zm34.22-17.83c10.85,0,19.82,10.3,18.49,22.92s-10.83,22.93-22.34,22.93S327.94,427,329.26,414.24s10.06-22.92,20.91-22.92Zm-1,4c-7.74,0-14,9.17-14.16,19.18S339.67,433,348.69,433s12.75-9.42,13-17.63-4.8-20.06-12.53-20.06Zm30,37.16V396.32H371.4l3.66-4.19h4.12V388.9c3.58-1.94,6-5.38,7.77-9.56v12.79h9.2l-3.66,4.19H387v32.29c0,3.92,5.81,2,8.75-.35,0,5.37-16.52,14.59-16.52,4.19Zm25.78,0V379.67c0-7.83,3.54-11.61,8.3-11.61h13.87c-.05,3.5-2.53,4.73-10.83,4.73-3.32,0-3.57,2.2-3.57,6.55v49.27c0,3.92,5.81,2,8.75-.35,0,5.37-16.52,14.59-16.52,4.19Zm51.27,0v-8.78c-6.84,3.54-12.34,13.5-19.4,13.5-5.22,0-8-6.05-8-13.83-.14-23.12,14.68-31.29,28.72-31.29h7.77v36.56c0,3.92,5.81,2,8.75-.35,0,5.37-17.81,14.59-17.81,4.19Zm0-35.87v23.9c-4.18,1.62-8.69,6.08-13,5.88-5.08-.24-6.82-4.31-6.7-10.74.31-16.41,12.37-22.19,19.74-19Zm32,.19v10.76c20.52-24.91,24.9-14.82,24.9-5.82v26.9c0,3.92,5.81,2,8.75-.35,0,5.37-16.52,14.59-16.52,4.19V407.12c0-9.84-6.83-6.44-17.13,3.34v27.18h-7.74v-37c0-3.93-5.85-2.05-8.79.35,0-5.38,16.53-14.59,16.53-4.2Zm66.73,35.68v0l0,0v-8.94c-6.84,3.54-13.82,13.66-20.88,13.66-5.22,0-8-6.05-8-13.83-.14-23.12,14.68-31.29,28.72-31.29h.22V379.67c0-7.83,3.54-11.61,8.31-11.61h13.86c-.05,3.5-2.53,4.73-10.82,4.73-3.33,0-3.58,2.2-3.58,6.55v49.27c0,3.92,5.81,2,8.75-.35,0,5.37-16.52,14.59-16.52,4.19Zm0-35.72V420c-4.19,1.62-10.17,6.57-14.52,6.37-5.08-.24-6.82-4.31-6.7-10.74.31-16.41,13.85-22,21.22-18.89Z" transform="translate(-32.25 -366.61)"/></svg>