<svg xmlns="http://www.w3.org/2000/svg" viewBox="0 0 159.62 180.67"><defs><style>.cls-1{fill:#3D3D3D;}</style></defs><g id="Capa_2" data-name="Capa 2"><g id="Layer_1" data-name="Layer 1"><g id="Logo"><path class="cls-1" d="M136.44,95.6a29.12,29.12,0,0,0-2.13-10.21c-1-2.52-2.13-5-3.25-7.43q-13.35-29.08-28-57.54c-1.37-2.65-2.71-5.31-4.17-7.92a27.79,27.79,0,0,0-5.23-7A20.41,20.41,0,0,0,80.9,0H78.72A20.35,20.35,0,0,0,65.63,5.68a28.3,28.3,0,0,0-5.06,6.83c-1.43,2.56-2.76,5.19-4.11,7.79Q46.63,39.39,37.38,58.77C33.7,66.5,30.06,74.24,26.55,82.05a37.92,37.92,0,0,0-3.26,10.16A26,26,0,0,0,38.62,119.8a26.47,26.47,0,0,0,12,2.12A32.78,32.78,0,0,0,66,116.78,67,67,0,0,0,79.73,105,69.68,69.68,0,0,0,92.4,116.12a33.92,33.92,0,0,0,15.27,5.71,26,26,0,0,0,26.94-16.23A25.93,25.93,0,0,0,136.44,95.6ZM79.76,93.29c-1.5-1.76-2.81-3.66-4.14-5.55a68,68,0,0,1-5.87-10.29,33.62,33.62,0,0,1-2.83-9.39,16.3,16.3,0,0,1,.72-7.75,11.43,11.43,0,0,1,4.55-5.62,14.13,14.13,0,0,1,16.44,1,11.91,11.91,0,0,1,4,7.7,24.88,24.88,0,0,1-1.8,11.43C88.21,81.59,84.15,87.62,79.76,93.29Zm48.39,8.26a18.32,18.32,0,0,1-8.63,10.81,18.82,18.82,0,0,1-12.2,2.07c-5.28-.82-10-3.62-14.11-6.93a74.41,74.41,0,0,1-8.33-8A95.84,95.84,0,0,0,95.81,82.9c2.58-5.2,4.54-10.83,4.72-16.68a21.89,21.89,0,0,0-2.32-10.79,19.85,19.85,0,0,0-11-9.45,22.5,22.5,0,0,0-13.63-.42A19.72,19.72,0,0,0,59,63.32c-.47,5.47.9,10.92,3,15.94A84.18,84.18,0,0,0,74.58,99.4a69.59,69.59,0,0,1-7.31,7.26c-4,3.43-8.69,6.41-13.94,7.55a19.14,19.14,0,0,1-12.72-1.49,18.31,18.31,0,0,1-9.38-11.48,18.88,18.88,0,0,1,.41-11.06c1-2.93,2.36-5.72,3.62-8.54Q48.46,52.87,63,24.72c1.44-2.8,2.86-5.6,4.38-8.35a18.9,18.9,0,0,1,4.74-5.94,12.66,12.66,0,0,1,15.7.3,21.78,21.78,0,0,1,5,6.74c3,5.6,5.85,11.27,8.72,16.94Q113.72,58.7,125,83.46a59.74,59.74,0,0,1,3.13,7.81A18.9,18.9,0,0,1,128.15,101.55Z"/><path class="cls-1" d="M37.06,137a5,5,0,1,1-1.81.77,5,5,0,0,1,1.81-.77Z"/><path class="cls-1" d="M53.7,153.2a9.77,9.77,0,0,1,5.73-2.95,13.53,13.53,0,0,1,4.3.27c0,2.27,0,4.54,0,6.81a11.41,11.41,0,0,0-6.77.11,8.07,8.07,0,0,0-3.1,2c-.19.16-.14.42-.16.64,0,6.34,0,12.69,0,19a2.08,2.08,0,0,1-.07.75c-2.45.06-4.9,0-7.36,0q0-14.5,0-29c2.06,0,4.13,0,6.19,0a1.12,1.12,0,0,1,1.11.65,6.07,6.07,0,0,1,.12,1.65Z"/><path class="cls-1" d="M106.53,153.22a10.56,10.56,0,0,1,7.59-3,12.32,12.32,0,0,1,8.24,2.71,9,9,0,0,1,3.12,4.68,24.73,24.73,0,0,1,.58,7v15.37c-2.47,0-4.94,0-7.41,0V164.55c0-1.9.09-4-.92-5.65a4.44,4.44,0,0,0-3.44-2,8.09,8.09,0,0,0-7,2.48,1,1,0,0,0-.33.71c0,.79.1,1.59,0,2.38-.09,1.08.06,2.16,0,3.24,0,2,0,4.07,0,6.1-.14,2.7.11,5.4,0,8.09-2.46,0-4.92,0-7.38,0,0-9.68,0-19.36,0-29h5.72a1.09,1.09,0,0,1,1.15.75,7.45,7.45,0,0,1,.1,1.57Z"/><path class="cls-1" d="M34.35,179.92c0-9.67,0-19.35,0-29h7.36c0,9.67,0,19.35,0,29Z"/><path class="cls-1" d="M29.78,150.9c-1.94,0-3.88,0-5.83,0-.51,0-1.17,0-1.42.56a5.17,5.17,0,0,0-.16,1.76,9.81,9.81,0,0,0-6.23-3,15,15,0,0,0-10.25,2.87,14.45,14.45,0,0,0-5.08,7.12A18.91,18.91,0,0,0,0,164.31v2a15.32,15.32,0,0,0,5.28,10.95A15,15,0,0,0,14,180.67h1.65a10,10,0,0,0,6.7-3.08,5.25,5.25,0,0,0,.16,1.77,1.23,1.23,0,0,0,1.23.56h6Q29.78,165.42,29.78,150.9Zm-7.64,20A7.86,7.86,0,0,1,16,173.67a8.7,8.7,0,0,1-6.73-2.91,8.69,8.69,0,0,1-1.71-6.88,7.61,7.61,0,0,1,2.81-5,9,9,0,0,1,5-1.82,8.09,8.09,0,0,1,7.05,3.08c.09,3.16,0,6.32,0,9.48C22.36,170.06,22.48,170.56,22.14,170.88Z"/><path class="cls-1" d="M95.32,159.2a14.44,14.44,0,0,0-5.74-6.8,15,15,0,0,0-8.91-2.18,10,10,0,0,0-6.55,3c0-5.42,0-10.84,0-16.26-2.47,0-5,0-7.42,0,0,14.31,0,28.64,0,43,2,0,4.09,0,6.14,0a1.13,1.13,0,0,0,1.2-.75,9.53,9.53,0,0,0,.07-1.6,9.91,9.91,0,0,0,6.78,3.1h1.51a14.74,14.74,0,0,0,10.72-5.36A16.26,16.26,0,0,0,95.32,159.2Zm-8.64,12.22a9,9,0,0,1-6.19,2.25,7.84,7.84,0,0,1-6.15-2.83.92.92,0,0,1-.23-.69q0-5,0-10a8.2,8.2,0,0,1,6-3.13,9,9,0,0,1,6.56,2.29,8.77,8.77,0,0,1,0,12.07Z"/><path class="cls-1" d="M156.31,155.61a14.75,14.75,0,0,0-13.53-5.28,9.81,9.81,0,0,0-5.54,2.88c0-5.42,0-10.84,0-16.26h-7.4q0,21.47,0,43c1.94,0,3.89,0,5.84,0,.51,0,1.15,0,1.41-.55a5.39,5.39,0,0,0,.16-1.79,10,10,0,0,0,6.67,3.08h1.66a14.74,14.74,0,0,0,10.61-5.29,15.61,15.61,0,0,0,3.43-9.06v-1.94A15.73,15.73,0,0,0,156.31,155.61Zm-5.77,15a9,9,0,0,1-8.48,3,7.65,7.65,0,0,1-4.77-3c-.13-1.22,0-2.45,0-3.68,0-2.25-.06-4.51,0-6.76a8,8,0,0,1,4.77-2.95c3.42-.63,7.4.72,9.13,3.88A9,9,0,0,1,150.54,170.58Z"/></g></g></g></svg>