<svg xmlns="http://www.w3.org/2000/svg" viewBox="0 0 314.87 112.76"><defs><style>.cls-1{fill:#5E5E5E;}.cls-2{fill:#fff;}</style></defs><g id="Capa_2" data-name="Capa 2"><g id="Layer_3" data-name="Layer 3"><path class="cls-1" d="M313.37,111.26H1.5s1.36-1.89,3.16-4.48c2-2.83,4.44-6.5,6.23-9.46,3.42-5.68,10.32-9.29,12.28-11.1,1.27-1.18,3.65-3.15,5.9-4.83,1.2-.9,2.35-1.71,3.29-2.27a27.65,27.65,0,0,0,4-3.44h0c3-2.89,6.21-6.58,6.65-7.75.69-1.81,1.18-3.47,2.74-4.64.62-.47,1.21-1,1.88-1.6a10.65,10.65,0,0,1,4-2.22c3-.88,3.72.49,6.07,3.37s10.71,4.9,10.71,4.9l16-21.53,25.83-14.91s9.68-16.1,15.45-19.52,7.93-6.31,10-10.22c3.62-.49,11.25,2.59,15.31,6.11s8,8.61,11.25,11.59,12.87,7.39,12.87,7.39,9.73-8,12-7.92,4.73.65,8.31,2.54,2.22,1.89,8.16,7.5a45.91,45.91,0,0,0,7,5.26c4.5,2.85,9,5.11,11.24,7.26,6.15,9.19,12.12,13.64,16.32,14.11A5.35,5.35,0,0,0,241,55c4-1.76,14.74-8.09,14.74-8.09s10.56,12.13,12.2,13.5,3.78.59,4,3.27S277,74,277,74s1.34.57,3.29,1.28a59.72,59.72,0,0,0,9,2.64c.39,3,2.87,5.28,5.41,9.32s5.87,5.16,10.11,11.68l.14.22C309.23,105.52,313.37,111.26,313.37,111.26Z"/><path class="cls-2" d="M208.73,91.7c2.11-3.3,3.35-4,4.79-4.89a11,11,0,0,0,4.21-3.66c1-1.76,2.57-5.21,2.57-5.21l-6.41,4.66-4.51,5.05Z"/><path class="cls-2" d="M238.32,55.39c-4.2-.47-10.17-4.92-16.32-14.11-2.24-2.15-6.74-4.41-11.24-7.26h0l4.78,9.14s-10.42-10.91-12.42-11.39a21.73,21.73,0,0,0-.69,5.91s1.76,1.09,2.4,4.41a30.46,30.46,0,0,0,2.3,6.7,11.47,11.47,0,0,1-3-5c-.53-2.64-4.55-5.58-4.64-7.14s1.22-6.12.63-7.83-3.32-7.09-12.67-8.07A82.93,82.93,0,0,0,178,26.64a35.32,35.32,0,0,0-6.45,6.6c-1.57,1.86-2.06,3.33-3.62,4.21s-12.13,5.53-13.4,6.36-2.69,4.55-4.16,6.16-3.62,1.47-3.82,2.25-2.88,4-3.71,6.85-1.52,5.26-4.31,6-7.37,7-8.18,8.53c4.76-2.94,8.08-3,9.58-5s3.13-4.56,3.46-6.65,2.67-7.57,7-8.94v5.48s3.46-11.8,4.76-13.24,13.37-6.06,13.37-6.06a19.9,19.9,0,0,1-9.26,8.93c9.33-2.08,9.52-4.82,11-8.41s1.57-4,3.4-5.28,1.3-3.26,2.47-4.31,7.5-5.61,9.85-6.26l-.45,2.71s1.89,1,2.15,1.86.85,1.95,2.8,3.39,3.42,9.67,3.51,10.18l-4.16-7.51-1.63,2.29-2.34-6c.13.73,2.28,12.49,3.3,14.34-.24-.33-2.11-3-2.66-3.06s-.71,1.59-1.37,1.66-1.56-1.11-1.82-3.85-2.66-4.77-2.86-4.95c.08.23,1.55,4.11,1.42,6.39s-.52,3.19-.13,4.17,1.89.52,2.22,1.63L190,67c-.42-.73-5.16-9.08-5.66-9.08s-2.8,3.59-2.8,4.31,1.89,1.23,1.95,2.47-.78,3.85-.78,5.35,2.94,8.48,3.12,8.92c-.27-.36-3.81-5.23-4.88-9.31-1.11-4.24-3-5.28-3.07-7.3a7.6,7.6,0,0,0-1.5-4.77c-1.23-2-2.14-3.65-2.14-5.34-1,3.26.84,6.45,1,7.76s-1.75,2.61-1,4.69,1.75.75,2.47,4.26-.59,5.66-.39,9.37,1,8.16,4.24,10.18l2.08,5.73c-.15-.26-2.58-4.37-3.84-4.69s-4-1.43-4.56-3.59a25.34,25.34,0,0,0-3.46-8c1.95,6.78.91,10.24,1.69,12.13s3.2,1.5,3.2,1.5-.33,3.59.91,5,1.89,1.3,1.89,1.3A6.16,6.16,0,0,0,179,103a29.42,29.42,0,0,1,2.22,6.39s.26-4.43,1.63-5.87,4.18-3.39,5.15-6.78.66-4.43-.52-4.83-2.41-3.84-2.35-6.84c2,5,3.79,6.06,6.2,7l-1.17,11.68a59.58,59.58,0,0,1,3.58-6c1.7-2.35,1.76-3.78,3.46-4.37A27.44,27.44,0,0,0,200.34,92s.85,2.61,2.48,2.67c0,0,2.79.2,2.93,0s.75-1.39.75-1.39a17.86,17.86,0,0,1-1.92-7.38c-.13-4.17,1.83-5.74-2.41-11,3.33,1.3,5,5.87,5.09,8.28A8.21,8.21,0,0,0,209,87.58l4.24-4.43a21.69,21.69,0,0,1-4.08-7C208,72.38,207.09,69.27,207,69c.22.38,3.76,6.53,5.47,8s3.23.83,4.78,2.93l1.53-1.26s-3.71-10.73-3.51-10.73,6.26,5.34,6.26,5.34,1.14-5.94,4.58-7.86,12.38-9,12.38-9ZM195.26,52.7c-.33-1.18-2.45-4.54-1.37-6.75-.3,1.59,2.09,5.51,2.87,6.39s-1.89,4.3-1.83,5.18,3.23,8.15,3.23,8.15-6-6-5.8-7.66S195.58,53.87,195.26,52.7Zm-.61,32.54a38.64,38.64,0,0,0-.29,6.46s-2.79-4.65-1.22-8,2.44-4.2,2.49-5.45-2.93-9-2.88-13.43c1.42,4.31,7.19,14.29,7.19,14.29S195.09,82.89,194.65,85.24Zm4.26-34.83c0-1.32,1.27-5.82,1-7.77A73.15,73.15,0,0,1,201,50.22c.2.93,3.53,5.72,3.62,11C202.92,56.82,198.91,51.73,198.91,50.41Zm15.07,10-1.18.78-4.84-10,4.89,6.11h2.84s2.05,9.15,2.05,9.3S214,60.39,214,60.39ZM220,51.91c-.24-.22-.93.51-2.3.31s-5-6.8-5.13-6.84,5.13,4.4,5.52,4.5,2.06-.25,2.5-.15,4.69,7.48,4.69,7.48S220.29,52.13,220,51.91Zm10.57,6.57c-.79.59-3.48-2-6-6.06C226.15,53.5,231.39,57.9,230.61,58.48Z"/><path class="cls-2" d="M105.29,83.58c6.26-1.67,14-5.12,15.36-6.49s3.7-5.74,6.41-7.63,11.56-5.91,11.56-5.91l.81-3s-8.89,5-12.37,6.72-6.74,7.17-8.5,8.73S105.29,83.58,105.29,83.58Z"/><path class="cls-2" d="M163.84,20.41a17.87,17.87,0,0,0,1.86,8C161.88,24.15,160,16.84,160,16.84L152,8.89s0,8.72,2.35,12.86c-4.55-5-3.62-8.36-3.72-9.83s-4.15-5.43-4.15-5.43,1,4,1.9,5.33c-2.15-3.13-6-9.17-11.2-8.31-.88.14,0,2.1.74,2.88a5.41,5.41,0,0,1,1.76,3.18c.09,1.37,1.86,4.16,1.86,4.16a16.21,16.21,0,0,1-2.94-3.52c-.78-1.57-2.59-3.72-3.28-3.28s-5.28,3.72-6.7,4.26-8.8,6.41-8.8,6.41S113,30,112.77,31.88s-5.08,7.38-6.5,9.44-3.13,7.09-4.21,9.78S94.82,64,94.82,64l4.8-5.18s1.12,1.56,1.61,2.44S98.49,68.6,95.9,71s-16,9.81-16,9.81c7.07-2.59,16.26-6,17.88-8.07S104,62.4,104,61s-2.41-2.06-2.58-3.82,2.06-2.67,2.25-4.85,4.47-12.23,8.77-16.41c.66,3,.23,9.88.23,9.88s3.36-10.63,3.46-17.67c5.62-7.92,7.58-7.68,9.59-10.47s4-3.13,5.91-4.4,3.77-2.15,5.19-1.66a4.39,4.39,0,0,1,2.69,4.25c-.15,2,2.45,8.66,2.45,8.66a50,50,0,0,1-3-4.4c-.75-1.44-1.24-.49-2,.26s-2.25,2.18-3,2.12-2.28-4.37-2.84-4.31,0,4.41.78,5.65,2.12,3.09,1.9,4.36,1.53,6.69,1.53,6.69-2.77-3.78-3.49-6c0,0-1.37,2.05-1.83,2.08s-3.36-5.47-3.36-5.47.1,4.17.27,5.44,1.4,2,1.56,2.35-.46,3.13.16,4.47S131.12,43,131.12,43l.91-6.88s6.1-.19,7,.79-.13,3.22,1,5.47,3.66,7.74,2.12,8.32-2-.78-3.65-4.17c-1.31,1.2-4.44,4.56-4.44,4.56l2.12,6.39a19.24,19.24,0,0,1-5.74-6.29C128,47,126.81,46,126.81,46a82.67,82.67,0,0,1,2.45,7.95c.58,2.81-1.37,8.12-1.37,8.12l12.32-4.79,4.08-4.11,5.27-6.29,2.5-3.5,3.18-1.8-5.18-10.16L156,37.89l-1.11-4.56,4.76,5.54,3.91-2-6.85-11s7.5,7.11,8.61,7.7S170.84,31,170.84,31l3.36-4.86Zm-6.08,11.91s-3.69-4.41-5.09-5-3.19-.09-3.62-.65a32.74,32.74,0,0,1-3.75-8.25l4.47,6.3c.68,1,2.15-.56,3.62,1A53,53,0,0,1,157.76,32.32Z"/><path class="cls-2" d="M57.84,85C65.48,80,70,73.21,74.08,67.73S85.92,50.61,87,49.53s12.47-8.17,12.47-8.17-3.52,9.4-4,14.14l7.09-13,5.58-9.49L93.47,41s-4,4.83-5.49,5.47a6.63,6.63,0,0,0-3.23,2.89c-.83,1.37-11.3,12.29-11.3,12.29Z"/><path class="cls-2" d="M29.74,81.58s-7.7,11.68-11,12.85-4,3.2-13.3,13.5l-.82-1.15c2-2.83,4.44-6.5,6.23-9.46,3.42-5.68,10.32-9.29,12.28-11.1,1.27-1.18,3.65-3.15,5.9-4.83Z"/><path class="cls-2" d="M65.8,67.73S60.23,76.3,57.32,80s-8.08,6.43-11.51,7.8a87,87,0,0,0-9.45,5.08,56.79,56.79,0,0,1,4.85-5.51c2.29-2.15,4.44-2.25,5-2.67s.65-.85,1.36-2.09a8.27,8.27,0,0,0,1-3.29c.16-1.11,4.11-4.53,4.92-5.8A1.56,1.56,0,0,0,53.05,71c-.75-.44-2.8-.81-3.52-1.3s.06-2.15.75-3.13,1.47-3,.91-3C49,63.42,46.3,68.25,46,70.27s-3.29,4-5.18,5.38-4.41,6.26-5.71,8S33,89,31.63,89.64s-3.49,3.75-4.21,5.28S26,98.48,20.34,99c1.88-.38,5-3,5.56-4.34s2.55-5.27,3.84-6.15,2.28-3.18,3.7-5.82a62.13,62.13,0,0,0,3-7h0c3-2.89,6.21-6.58,6.65-7.75.69-1.81,1.18-3.47,2.74-4.64.62-.47,1.21-1,1.88-1.6l2.17,0c2,1,3-.33,4,0s2.25,7.17,6.33,9.58A12.22,12.22,0,0,1,57.45,64Z"/><path class="cls-2" d="M40.17,105.46c7.44-1.89,20.15-8.42,21-9.46s7-11,11.48-15.66a38.09,38.09,0,0,0-13.5,14C58.5,95.67,42.71,103.57,40.17,105.46Z"/><path class="cls-2" d="M90.89,52.93c.38.55-.88,2.84-1.35,3.28s-2.62,1-3,2.25-6.6,8-6.6,8,4.87-9,5.89-10.52S90.76,52.76,90.89,52.93Z"/><path class="cls-2" d="M119.61,42.11c-.46,3.87-1,12.48-1.11,14.27s-6.46,5.51-7.37,6.88-3.79,10.37-3.79,10.37,1-9.32,2.61-11.61,6.07-4.43,6.72-7.24Z"/><path class="cls-2" d="M162.62,54.62c-6.26,3.42-8.16,4.37-9.13,6s-.69,3.16-1.08,4.51-1.7,4.06-1.66,5c0,0-6.79,4.21-10.05,10.24,3.26-3.26,7.31-6.85,9.39-7.69s3.72-3.17,4.21-6.23.29-4.18,1-4.89S162.62,54.62,162.62,54.62Z"/><path class="cls-2" d="M305,99.09l-.83,2.65s-5.9-4.63-6.62-5.12-.81-1.73-3.06-3.26a40.59,40.59,0,0,1-4.71-4,48.34,48.34,0,0,0,3.44,5.13c2,2.6,2.54,7,2.08,7.1a7.47,7.47,0,0,1-3.62-1.4c-1-.85-4.53-7.17-6.09-8s-2.45-1.7-5.32-5.71c1.7,4.37,4.57,6.62,4.83,7.34a5.44,5.44,0,0,1,0,2.12l-1.46-.51a78.74,78.74,0,0,0,4.78,7.62c2.09,2.74,2.12,1,3.92,2.51a28.4,28.4,0,0,1,3.62,4s-3.2-2.5-4.37-3.28-2.32-.62-3.13-1.08-1.24-1.59-3-3.32-5.39-4.8-6-6.34-3.65-5-5.09-6.11-3.3-3-3.3-3a5,5,0,0,0,1.15,1.88c1,1.12.34,2.57,1,4.92.57,2.19,2.91,4.4,3.2,4.66-.31-.24-2.77-2.26-3.3-2.81s-1.17-.12-2.25-1.71.15-3-.8-3.54-2-3.18-2.25-4.48,1.44-3.28.48-4.65-4.3-7.5-4.47-7.58,2.59,8.59,2.59,8.59a17.1,17.1,0,0,0-1.22,2.54,15,15,0,0,0-.49,3.79,17.85,17.85,0,0,0-2.08-3.28c-.76-.68-2-.29-2.79-.61s-6.5-5.18-6.5-5.18,4.84,6.18,5.84,6.92,1.18-.34,2.08.41,2.3,4.6,3.64,6.34.49,3.08,2.06,5.21,2.44,2,3.57,3,.66,2.35.93,4.08,3,4.41,3.22,4.62a60.12,60.12,0,0,1-5.86-3.05c-.74-.64-.15-1.57-1.27-2.54s-3.87-2.6-5.31-4.31a13.76,13.76,0,0,1-2.42-5.5c-.3-1.27-1.1-1.49-1.74-2.52s-.32-2-.89-2.57a12.9,12.9,0,0,0-2.43-1.54s1.73,1.52,1.9,2.3-.09,1.37.35,2.1,0,1.28-.22,2.06a14.47,14.47,0,0,0,.36,3.5,22.61,22.61,0,0,0-4.91,1.19c-1.42.71-3.33,2.94-3.89,2.89s-4.38-2.57-4.75-2.47-.49.71.44,1.76,2.64,3.69,1.69,4.33-3.28,3.79-4.94,3.69c-.83-.31,0-4,0-4.74s-.62-1.31-2-3.88-2.06-7.8-2.06-7.8l3.1,3.66,4.27-2.45s-2.83-2.64-3.65-3.29-1.92,1.3-3,.16-3.1-6.13-3.22-6.44c.24.26,4.08,4.46,4.3,4.68s.91-.1,1.79-.33,3.52,2.48,4.76,3.79,7,4.36,7,4.36a14.4,14.4,0,0,0-2.38-3.42,41.69,41.69,0,0,1-4-6.28l4,3,.91-2.55c-2-.75-4.86-4.14-5.83-4.95s-5,0-5.4,0l4.25-4S242.18,75.62,241,73c.16,0,9.52,9.16,9.52,9.16l-3.32-5.64L251,73.14s-2.84-3.78-2-4.21,8.7,7.12,9.18,7.58c-.29-.5-5.79-9.65-6.8-12.34s-2.39-5.88-2.56-6.28A76.93,76.93,0,0,0,256,66.32c-3.06-4.82-3-8.38-2.8-10.1s1.24-3.79.39-4-2,1.63-5.19,3.13-5.44,2-6.36,3.26S239.18,62,238,63.29s-1,1.93-1,3.13-4.65,4.73-4.94,5c.23-.25,4.09-4.37,3.67-5.6s.82-3.13.82-3.13-6.17,3.55-7.24,4.47A18.53,18.53,0,0,0,225,73.66c-.55,2.12-.52,5.32-.82,7.08s-3.16,4.76-5.08,10a34.37,34.37,0,0,1,2.48-8.32c.71-1.6.45-2.35.48-3.78A18.66,18.66,0,0,1,224,72.06c.92-1.43,1.41-3.42,3.17-4.76s8.18-5.18,9.65-6.16A14.12,14.12,0,0,0,240.19,58c.93-1.17,6-3.37,8.22-4.5s4.79-3.91,6.11-3.91,7.75,8.72,8.47,10.35,2.87,5.51,4,7.67.52,3.58.52,5,3.74,4.49,4,4.68c-.15-.23-2.57-3.91-2.5-5s.72-3.39-.62-5.68a22.22,22.22,0,0,1-2-4.79,22.58,22.58,0,0,1,3.06,2c1.05.88.65,3.29,3.69,7.92s3.85,8.74,5,9.88,2.09.59,4.69,2.87,6,7.46,6.19,7.78c-.2-.46-3.49-7.86-4.69-9.44s-4.23-3.46-4.5-5.41a5,5,0,0,1,.49-2.12,59.72,59.72,0,0,0,9,2.64c.39,3,2.87,5.28,5.41,9.32s5.87,5.16,10.11,11.68Z"/><path class="cls-2" d="M229,84.56c-.07,3.45.19,6.88-1.57,9.06s-6.1,3-6.64,3.92-.83,2.72-1.83,2.94c.78-1.47-.05-2.5.78-3.4s6.34-2.45,7.32-4.85A55.5,55.5,0,0,0,229,84.56Z"/><path class="cls-1" d="M313.37,112.76H1.5a1.49,1.49,0,0,1-1.22-2.37s1.36-1.89,3.15-4.46,4.37-6.39,6.18-9.38c2.66-4.43,7.21-7.61,10.22-9.71a26.43,26.43,0,0,0,2.32-1.72c1.41-1.3,3.88-3.33,6-4.93,1.4-1,2.52-1.82,3.42-2.36a25.46,25.46,0,0,0,3.77-3.22c3.44-3.35,6-6.51,6.31-7.22l.2-.54a9.49,9.49,0,0,1,3-4.77c.37-.28.74-.61,1.13-.95l.68-.59A12.23,12.23,0,0,1,51.25,58c3.69-1.08,5.1.68,7.07,3.13l.59.73c1.33,1.65,5.84,3.3,9,4.15L83.3,45.31a1.47,1.47,0,0,1,.45-.41l25.5-14.71c1.47-2.42,10.15-16.38,15.77-19.71,5.32-3.15,7.36-5.71,9.47-9.64a1.49,1.49,0,0,1,1.12-.77c4.39-.61,12.48,3,16.49,6.46a79.79,79.79,0,0,1,6.62,6.75c1.67,1.84,3.24,3.57,4.66,4.86,2.53,2.31,9.27,5.61,11.64,6.74,3.88-3.13,9.94-7.74,12.28-7.66,2.78.05,5.47.86,9,2.72a11.23,11.23,0,0,1,4.08,3.2,62.79,62.79,0,0,0,4.41,4.53,43.44,43.44,0,0,0,6.79,5.08c1.44.92,2.88,1.77,4.27,2.59A41.85,41.85,0,0,1,223,40.2a1.64,1.64,0,0,1,.21.25c5.32,7.95,11,13,15.24,13.45a3.88,3.88,0,0,0,2-.23c3.9-1.71,14.46-8,14.57-8a1.49,1.49,0,0,1,1.89.31c4.21,4.84,10.9,12.38,12,13.33a4,4,0,0,0,1.37.64,3.87,3.87,0,0,1,3.2,3.64c.15,1.52,2.67,6.13,4.55,9.17.53.22,1.53.62,2.78,1.07a59,59,0,0,0,8.8,2.58,1.5,1.5,0,0,1,1.22,1.28c.21,1.67,1.3,3.17,2.8,5.24.73,1,1.56,2.15,2.39,3.47a20.57,20.57,0,0,0,3.66,4.13,37.73,37.73,0,0,1,6.44,7.53c0,.06.12.19.18.3,4.09,6.25,8.22,12,8.26,12a1.49,1.49,0,0,1-1.22,2.37Zm-309-3H310.47c-1.61-2.28-4.15-6-6.7-9.85l-.1-.17a35.5,35.5,0,0,0-6-7A23.6,23.6,0,0,1,293.51,88c-.78-1.24-1.54-2.29-2.28-3.31a17.83,17.83,0,0,1-3.13-5.53,68.54,68.54,0,0,1-8.29-2.51c-2-.71-3.3-1.28-3.36-1.31a1.48,1.48,0,0,1-.68-.58c-.83-1.31-5-8-5.24-10.88-.07-.73-.16-.76-1.15-1.08A6.39,6.39,0,0,1,267,61.6c-1.47-1.22-8.92-9.71-11.55-12.72C252.63,50.54,245,55,241.64,56.42a6.79,6.79,0,0,1-3.48.46c-5.14-.57-11.45-5.9-17.31-14.62a43.48,43.48,0,0,0-6.54-4.34c-1.41-.83-2.87-1.69-4.35-2.63a46.51,46.51,0,0,1-7.25-5.44,65.53,65.53,0,0,1-4.6-4.73,8.28,8.28,0,0,0-3.23-2.53c-3.07-1.62-5.35-2.33-7.64-2.37-1.23.14-6.71,4-11.05,7.58a1.49,1.49,0,0,1-1.58.21c-.4-.19-9.84-4.54-13.25-7.65-1.53-1.38-3.15-3.17-4.86-5.06a80.12,80.12,0,0,0-6.36-6.5c-3.46-3-10-5.77-13.41-5.8-2.2,3.92-4.63,6.78-10.19,10.06-4.46,2.65-12.29,14.62-14.92,19a1.68,1.68,0,0,1-.54.52L85.52,47.35,69.66,68.63a1.49,1.49,0,0,1-1.55.56C67.2,69,59.17,67,56.58,63.78L56,63c-1.91-2.37-2.18-2.62-3.88-2.12a9,9,0,0,0-3.44,1.93l-.64.55c-.44.39-.87.77-1.3,1.1a6.86,6.86,0,0,0-2,3.41l-.21.57c-.71,1.88-5.29,6.62-7,8.29a30,30,0,0,1-4.34,3.66c-.8.48-1.87,1.21-3.16,2.18-2.06,1.54-4.44,3.49-5.78,4.73a25.52,25.52,0,0,1-2.64,2c-2.8,2-7,4.91-9.37,8.8-1.85,3.05-4.44,6.87-6.29,9.54Z"/><path class="cls-1" d="M192.37,112.29l-2.19-2.05c.1-.11,9.78-10.47,12.65-14a23.72,23.72,0,0,0,3.65-6.64c.38-.93.73-1.81,1.16-2.67,1-2,4.25-4.68,8.1-7.74,1.09-.87,2.32-1.86,2.56-2.14a23.89,23.89,0,0,0,1.3-3c1.13-2.84,2.67-6.73,4.63-9.28a1.56,1.56,0,0,1,.63-.48c3.44-1.37,6.8-4.12,9.75-6.54,2.39-2,4.27-3.49,5.9-4.1l1.06,2.81a25.55,25.55,0,0,0-5.06,3.62c-2.86,2.34-6.41,5.24-10.13,6.83a41.51,41.51,0,0,0-4,8.24A16.49,16.49,0,0,1,220.61,79a27,27,0,0,1-3,2.56c-2.44,1.94-6.51,5.19-7.28,6.74-.38.76-.72,1.58-1.07,2.46a26.49,26.49,0,0,1-4.1,7.4C202.23,101.74,192.78,111.86,192.37,112.29Z"/><path class="cls-1" d="M97.36,112.2,95,110.32,118.8,80.87c.21-.3,6.55-9.11,13.64-13.8,4.73-3.14,5.32-4.71,6.22-7.08a28.48,28.48,0,0,1,1.4-3.23,20,20,0,0,1,5.54-6.95q.56-.47,1.14-1a5.75,5.75,0,0,0,1.36-2.36,8.25,8.25,0,0,1,3.55-4.66c3.06-1.89,12.7-6.47,14.75-7.44.95-1.38,4.54-6.42,7.95-8.93l1.78,2.42c-3.47,2.55-7.43,8.47-7.47,8.53a1.55,1.55,0,0,1-.61.52c-.12.06-11.6,5.47-14.82,7.45a5.35,5.35,0,0,0-2.33,3.18,8.26,8.26,0,0,1-2.14,3.5c-.41.38-.81.72-1.2,1a17.17,17.17,0,0,0-4.84,6.07,23.46,23.46,0,0,0-1.25,2.9c-1.14,3-2.1,5-7.37,8.52-6.64,4.39-12.85,13-12.91,13.12Z"/><path class="cls-1" d="M51.41,112.24l-2.27-2L74.58,80.8C79.27,76,91.7,62.71,93.64,58.11c2.48-5.89,9.69-18.29,10-18.82a105.32,105.32,0,0,1,5.84-9.46l2.44,1.73a104.71,104.71,0,0,0-5.66,9.2c-.1.17-7.44,12.81-9.85,18.52-2.56,6.06-18.92,22.84-19.61,23.55Z"/><path class="cls-1" d="M27.71,112.4l-1.95-2.28C26,109.93,47.61,91.5,53.28,86s11.57-15.25,13.83-19l.07-.11,2.56,1.56-.07.11c-2.31,3.8-8.45,13.9-14.3,19.56S28.6,111.64,27.71,112.4Z"/></g></g></svg>